<?xml version="1.0" encoding="UTF-8" standalone="no"?>
<svg
   xmlns:dc="http://purl.org/dc/elements/1.1/"
   xmlns:cc="http://creativecommons.org/ns#"
   xmlns:rdf="http://www.w3.org/1999/02/22-rdf-syntax-ns#"
   xmlns:svg="http://www.w3.org/2000/svg"
   xmlns="http://www.w3.org/2000/svg"
   id="svg8"
   version="1.1"
   viewBox="0 0 210 297"
   height="1122.5197"
   width="793.70081">
  <defs
     id="defs2" />
  <metadata
     id="metadata5">
    <rdf:RDF>
      <cc:Work
         rdf:about="">
        <dc:format>image/svg+xml</dc:format>
        <dc:type
           rdf:resource="http://purl.org/dc/dcmitype/StillImage" />
        <dc:title></dc:title>
      </cc:Work>
    </rdf:RDF>
  </metadata>
  <g
     id="layer1">
    <path
       id="path4558"
       d="m 100.98866,33.17162 a 66.145835,66.145835 0 0 0 -66.14583,66.145833 66.145835,66.145835 0 0 0 66.14583,66.145827 66.145835,66.145835 0 0 0 66.14584,-66.145827 66.145835,66.145835 0 0 0 -10.50479,-35.63865 8.4039815,8.4039815 0 0 1 -5.98361,-1.32085 8.4039815,8.4039815 0 0 1 -3.70107,-6.812505 14.03742,14.03742 0 0 1 -16.07085,0.300757 14.03742,14.03742 0 0 1 -5.73557,-15.175301 8.4039815,8.4039815 0 0 1 -7.90133,-0.787551 8.4039815,8.4039815 0 0 1 -3.56154,-5.425506 66.145835,66.145835 0 0 0 -12.68708,-1.286227 z m 0,42.994793 a 23.151041,23.151041 0 0 1 23.15104,23.15104 23.151041,23.151041 0 0 1 -23.15104,23.151037 23.151041,23.151041 0 0 1 -23.15104,-23.151037 23.151041,23.151041 0 0 1 23.15104,-23.15104 z"
       style="opacity:1;fill:#e6b790;fill-opacity:1;stroke:none;stroke-width:7.03125;stroke-linecap:round;stroke-linejoin:round;stroke-miterlimit:4;stroke-dasharray:none;paint-order:normal" />
    <path
       id="path4586"
       d="m 101.77104,27.371456 c -0.59796,-0.0057 -1.19627,-0.0026 -1.7942,0.0072 -33.04692,-0.04973 -63.49441,25.108373 -69.48103,57.664177 -0.95314,4.2949 -1.44626,8.63806 -1.52446,12.96665 -0.83742,6.279307 -0.37224,12.699407 1.46917,17.950317 0.93652,2.67056 2.22912,5.06714 4.09535,6.93498 1.86624,1.86784 4.45709,3.15485 7.29206,3.15485 3.86527,0 6.89057,-2.67234 8.33025,-5.52886 1.43967,-2.85649 2.01664,-6.04897 2.5585,-9.0656 0.54185,-3.01664 1.03818,-5.88229 1.68051,-7.5706 0.32117,-0.84415 0.66934,-1.34093 0.82166,-1.48828 0.15231,-0.14735 -0.0123,-0.0899 0.22634,-0.0899 1.1297,0 1.25096,0.16561 1.98954,1.44901 0.73858,1.2834 1.42972,3.58926 2.1699,6.11539 0.74018,2.52613 1.53427,5.29914 3.23649,7.7773 1.70223,2.47817 4.78312,4.54133 8.51628,4.54133 3.53087,0 6.53948,-1.0145 8.61136,-2.9621 2.07188,-1.94759 3.01808,-4.51723 3.46025,-6.99854 0.88073,-4.94238 0.11845,-10.19875 0.262,-13.897337 0.64116,-8.63516 7.93518,-16.56603 17.47129,-16.32407 a 3.3076224,3.3076224 0 0 0 0.18138,-5.1e-4 c 8.8423,-0.26075 16.3163,7.92913 16.99741,16.40468 a 3.3076224,3.3076224 0 0 0 0.002,0.0196 c 0.49682,5.754027 0.21928,12.558707 1.23404,18.405587 0.50737,2.92344 1.32456,5.70267 3.15536,7.999 1.8308,2.29632 4.86352,3.78891 8.24549,3.78891 2.2786,0 4.44759,-0.94755 5.95054,-2.37298 1.50295,-1.42543 2.44941,-3.19247 3.175,-5.07204 1.45117,-3.75914 2.06415,-8.16663 2.68253,-12.44627 0.61837,-4.27964 1.23722,-8.43611 2.17867,-11.114567 0.47074,-1.33922 1.02235,-2.26015 1.42627,-2.67994 0.40392,-0.41978 0.49274,-0.46661 1.02423,-0.46922 0.25292,-0.001 0.14173,-0.0849 0.47542,0.30179 0.33369,0.38668 0.84842,1.33153 1.27383,2.68149 0.85083,2.699927 1.40432,6.855807 1.93063,11.111467 0.52631,4.25566 1.02594,8.61156 2.17661,12.28969 0.57534,1.83907 1.29858,3.54888 2.55591,5.02036 1.25735,1.47149 3.31532,2.6231 5.49579,2.6231 2.91917,0 5.4082,-1.81558 6.89209,-3.97237 1.4839,-2.15678 2.36997,-4.74522 3.03599,-7.61194 1.33202,-5.73343 1.66367,-12.65264 1.57768,-18.812797 a 3.3076224,3.3076224 0 0 0 0,-0.0212 c -0.26614,-13.10488 -3.97322,-26.16221 -10.99564,-37.29843 a 8.4039815,8.9430515 33.929966 0 1 -0.0258,0.0424 8.4039815,8.9430515 33.929966 0 1 -11.96516,2.72955 8.4039815,8.9430515 33.929966 0 1 -3.57239,-7.003709 14.03742,14.937844 33.929966 0 1 -16.40159,0.791681 14.03742,14.937844 33.929966 0 1 -5.39915,-15.675012 8.4039815,8.9430515 33.929966 0 1 -8.03569,-0.588076 8.4039815,8.9430515 33.929966 0 1 -1.98075,-12.111405 8.4039815,8.9430515 33.929966 0 1 0.19895,-0.275952 c -4.23491,-0.826844 -8.54791,-1.277462 -12.88087,-1.318784 z"
       style="color:#000000;font-style:normal;font-variant:normal;font-weight:normal;font-stretch:normal;font-size:medium;line-height:normal;font-family:sans-serif;font-variant-ligatures:normal;font-variant-position:normal;font-variant-caps:normal;font-variant-numeric:normal;font-variant-alternates:normal;font-feature-settings:normal;text-indent:0;text-align:start;text-decoration:none;text-decoration-line:none;text-decoration-style:solid;text-decoration-color:#000000;letter-spacing:normal;word-spacing:normal;text-transform:none;writing-mode:lr-tb;direction:ltr;text-orientation:mixed;dominant-baseline:auto;baseline-shift:baseline;text-anchor:start;white-space:normal;shape-padding:0;clip-rule:nonzero;display:inline;overflow:visible;visibility:visible;opacity:1;isolation:auto;mix-blend-mode:normal;color-interpolation:sRGB;color-interpolation-filters:linearRGB;solid-color:#000000;solid-opacity:1;vector-effect:none;fill:#fdfdde;fill-opacity:1;fill-rule:nonzero;stroke:none;stroke-width:6.61458254;stroke-linecap:round;stroke-linejoin:round;stroke-miterlimit:4;stroke-dasharray:none;stroke-dashoffset:0;stroke-opacity:1;paint-order:normal;color-rendering:auto;image-rendering:auto;shape-rendering:auto;text-rendering:auto;enable-background:accumulate" />
    <path
       id="path4567"
       d="m 101.73952,30.678747 c -0.58413,-0.0056 -1.16888,-0.0033 -1.75338,0.0067 -31.37565,-0.05447 -60.60434,24.11309 -66.25177,55.024546 -0.91615,4.1118 -1.38918,8.27694 -1.45934,12.43645 -1.65866,11.789327 1.90519,24.595907 9.5529,24.595907 10.45264,0 5.36455,-23.743247 13.61726,-23.743247 9.25547,0 4.9954,19.883027 15.91221,19.883027 11.81326,0 8.68589,-12.37756 9.02839,-20.735687 0.73752,-10.355 9.4518,-19.73479 20.86022,-19.44532 10.84089,-0.31969 19.5732,9.26231 20.39152,19.44532 1.04512,12.104327 -0.96383,27.170947 9.34,27.170947 11.92233,0 5.36356,-34.100727 16.42122,-34.155017 9.73478,-0.0478 4.23278,34.027897 13.92421,34.027897 6.78551,0 8.36639,-15.05274 8.19899,-27.043827 -0.24621,-12.14221 -3.59255,-24.23173 -9.88209,-34.61804 a 8.4039815,9.5374107 33.929966 0 1 -10.68307,1.341 8.4039815,9.5374107 33.929966 0 1 -3.43079,-7.214025 14.03742,15.93062 33.929966 0 1 -16.76539,1.332736 14.03742,15.93062 33.929966 0 1 -5.02863,-16.225885 8.4039815,9.5374107 33.929966 0 1 -8.184,-0.367935 8.4039815,9.5374107 33.929966 0 1 -2.67322,-10.66705 c -3.67152,-0.653894 -7.39735,-1.012867 -11.13524,-1.048515 z"
       style="opacity:1;fill:#eaeae1;fill-opacity:1;stroke:none;stroke-width:7.03124952;stroke-linecap:round;stroke-linejoin:round;stroke-miterlimit:4;stroke-dasharray:none;paint-order:normal" />
    <path
       id="path4589"
       d="m 147.54861,94.461933 c -0.0303,0.002 -0.0706,0.007 -0.13384,0.008 -0.53149,0.003 -0.62031,0.0494 -1.02423,0.46922 -0.40392,0.41979 -0.95553,1.34072 -1.42627,2.67994 -0.94145,2.678457 -1.5603,6.834927 -2.17867,11.114567 -0.61838,4.27964 -1.23136,8.68713 -2.68253,12.44627 -0.72559,1.87957 -1.67205,3.64661 -3.175,5.07204 -1.50295,1.42543 -3.67194,2.37298 -5.95054,2.37298 -1.65404,0 -3.22336,-0.35924 -4.61057,-0.9927 -15.71558,13.64157 -43.66047,11.72806 -55.9108,-5.48804 -3.32508,-0.29997 -6.05215,-2.22053 -7.61504,-4.49585 -1.70222,-2.47816 -2.49631,-5.25117 -3.23649,-7.7773 -0.74018,-2.52613 -1.43132,-4.83199 -2.1699,-6.11539 -0.73858,-1.2834 -0.85984,-1.44901 -1.98954,-1.44901 -0.23865,0 -0.074,-0.0574 -0.22634,0.0899 -0.15232,0.14735 -0.50049,0.64413 -0.82166,1.48828 -0.64233,1.68831 -1.13866,4.55396 -1.68051,7.5706 -0.24689,1.37448 -0.50516,2.78516 -0.84491,4.18424 0.0932,0.23993 0.18839,0.4797 0.28628,0.71882 9.05671,26.14892 41.2465,42.67901 67.29512,31.16295 15.74111,-5.9415 27.91686,-20.23135 31.9536,-36.46237 -0.10561,-0.83163 -0.2095,-1.66465 -0.31212,-2.49442 -0.52631,-4.25566 -1.0798,-8.41154 -1.93063,-11.111467 -0.42541,-1.34996 -0.94014,-2.29481 -1.27383,-2.68149 -0.25027,-0.29 -0.25051,-0.31546 -0.34158,-0.30954 z"
       style="opacity:0.22600002;fill:#ffffff;fill-opacity:1;stroke:none;stroke-width:7.03124952;stroke-linecap:round;stroke-linejoin:round;stroke-miterlimit:4;stroke-dasharray:none;paint-order:normal" />
    <path
       id="path4643"
       d="m 99.33037,47.697864 c -25.4218,-0.153646 -47.2237,22.380729 -50.05224,46.890159 0.5583,-0.42358 1.17457,-0.80915 1.8588,-1.14877 4.48208,-1.97946 9.1072,-0.60565 12.44988,2.39314 2.16235,-17.47461 16.07306,-33.9346 34.55397,-34.08422 1.76175,-0.12827 3.52876,-0.16805 5.29476,-0.15813 16.6274,0.26012 29.87319,13.73543 34.02945,29.22353 1.14273,-1.7443 2.62928,-3.30668 4.59559,-4.61263 2.86095,-1.86303 5.89587,-1.91683 8.61342,-0.84646 -2.4427,-8.62477 -7.297,-16.5394 -13.70045,-22.86424 a 14.03742,16.969572 33.929966 0 1 -9.37307,-1.77819 14.03742,16.969572 33.929966 0 1 -5.27565,-8.502837 c -6.64082,-3.122819 -13.93903,-4.777118 -21.4204,-4.473112 -0.52602,-0.02255 -1.05097,-0.03508 -1.57406,-0.03824 z"
       style="opacity:0.206;fill:#ffffff;fill-opacity:1;stroke:none;stroke-width:7.03124952;stroke-linecap:round;stroke-linejoin:round;stroke-miterlimit:4;stroke-dasharray:none;paint-order:normal" />
    <rect
       transform="rotate(-32.359194)"
       ry="1.0583333"
       y="88.937347"
       x="-5.7867475"
       height="2.1166666"
       width="7.9374995"
       id="rect4799"
       style="opacity:1;fill:#ff80b2;fill-opacity:1;stroke:none;stroke-width:3.30729127;stroke-linecap:round;stroke-linejoin:round;stroke-miterlimit:4;stroke-dasharray:none;stroke-opacity:1;paint-order:normal" />
    <rect
       transform="rotate(-32.359194)"
       ry="1.0583333"
       y="90.850555"
       x="22.444088"
       height="2.1166666"
       width="7.9374995"
       id="rect4801"
       style="opacity:1;fill:#ff80b2;fill-opacity:1;stroke:none;stroke-width:3.30729127;stroke-linecap:round;stroke-linejoin:round;stroke-miterlimit:4;stroke-dasharray:none;stroke-opacity:1;paint-order:normal" />
    <rect
       transform="rotate(-79.204789)"
       ry="1.0583333"
       y="79.698067"
       x="-63.004681"
       height="2.1166666"
       width="7.9374995"
       id="rect4803"
       style="opacity:1;fill:#ff80b2;fill-opacity:1;stroke:none;stroke-width:3.30729127;stroke-linecap:round;stroke-linejoin:round;stroke-miterlimit:4;stroke-dasharray:none;stroke-opacity:1;paint-order:normal" />
    <rect
       transform="rotate(-79.204789)"
       ry="1.0583333"
       y="121.82197"
       x="-29.653862"
       height="2.1166666"
       width="7.9374995"
       id="rect4805"
       style="opacity:1;fill:#ff6600;fill-opacity:1;stroke:none;stroke-width:3.30729127;stroke-linecap:round;stroke-linejoin:round;stroke-miterlimit:4;stroke-dasharray:none;stroke-opacity:1;paint-order:normal" />
    <rect
       style="opacity:1;fill:#5fd3bc;fill-opacity:1;stroke:none;stroke-width:3.30729127;stroke-linecap:round;stroke-linejoin:round;stroke-miterlimit:4;stroke-dasharray:none;stroke-opacity:1;paint-order:normal"
       id="rect4733"
       width="7.9374995"
       height="2.1166666"
       x="-47.864914"
       y="117.12495"
       ry="1.0583333"
       transform="rotate(-79.204789)" />
    <rect
       style="opacity:1;fill:#e5ff80;fill-opacity:1;stroke:none;stroke-width:3.30729127;stroke-linecap:round;stroke-linejoin:round;stroke-miterlimit:4;stroke-dasharray:none;stroke-opacity:1;paint-order:normal"
       id="rect4735"
       width="7.9374995"
       height="2.1166666"
       x="-22.450687"
       y="107.82181"
       ry="1.0583333"
       transform="rotate(-32.359194)" />
    <rect
       transform="rotate(-32.359194)"
       ry="1.0583333"
       y="110.25231"
       x="21.426785"
       height="2.1166666"
       width="7.9374995"
       id="rect4767"
       style="opacity:1;fill:#5fd3bc;fill-opacity:1;stroke:none;stroke-width:3.30729127;stroke-linecap:round;stroke-linejoin:round;stroke-miterlimit:4;stroke-dasharray:none;stroke-opacity:1;paint-order:normal" />
    <rect
       transform="rotate(45.651819)"
       ry="1.0583333"
       y="19.951628"
       x="118.68023"
       height="2.1166666"
       width="7.9374995"
       id="rect4769"
       style="opacity:1;fill:#6600ff;fill-opacity:1;stroke:none;stroke-width:3.30729127;stroke-linecap:round;stroke-linejoin:round;stroke-miterlimit:4;stroke-dasharray:none;stroke-opacity:1;paint-order:normal" />
    <rect
       style="opacity:1;fill:#80e5ff;fill-opacity:1;stroke:none;stroke-width:3.30729127;stroke-linecap:round;stroke-linejoin:round;stroke-miterlimit:4;stroke-dasharray:none;stroke-opacity:1;paint-order:normal"
       id="rect4737"
       width="7.9374995"
       height="2.1166666"
       x="91.973618"
       y="47.616341"
       ry="1.0583333"
       transform="rotate(25.614378)" />
    <rect
       style="opacity:1;fill:#aa0000;fill-opacity:1;stroke:none;stroke-width:3.30729127;stroke-linecap:round;stroke-linejoin:round;stroke-miterlimit:4;stroke-dasharray:none;stroke-opacity:1;paint-order:normal"
       id="rect4739"
       width="7.9374995"
       height="2.1166666"
       x="78.055511"
       y="40.4739"
       ry="1.0583333"
       transform="rotate(-2.3736397)" />
    <rect
       transform="matrix(0.95880599,-0.28406173,0.4169602,0.90892474,0,0)"
       ry="1.0925032"
       y="105.80402"
       x="81.067589"
       height="2.1850064"
       width="9.6654816"
       id="rect4761"
       style="opacity:1;fill:#ff5555;fill-opacity:1;stroke:none;stroke-width:3.70802355;stroke-linecap:round;stroke-linejoin:round;stroke-miterlimit:4;stroke-dasharray:none;stroke-opacity:1;paint-order:normal" />
    <rect
       transform="rotate(-20.236841)"
       ry="1.0583333"
       y="124.0714"
       x="85.326416"
       height="2.1166666"
       width="7.9374995"
       id="rect4763"
       style="opacity:1;fill:#ffdd55;fill-opacity:1;stroke:none;stroke-width:3.30729127;stroke-linecap:round;stroke-linejoin:round;stroke-miterlimit:4;stroke-dasharray:none;stroke-opacity:1;paint-order:normal" />
    <rect
       transform="rotate(-20.236841)"
       ry="1.0583333"
       y="88.233154"
       x="42.422428"
       height="2.1166666"
       width="7.9374995"
       id="rect4765"
       style="opacity:1;fill:#00ff00;fill-opacity:1;stroke:none;stroke-width:3.30729127;stroke-linecap:round;stroke-linejoin:round;stroke-miterlimit:4;stroke-dasharray:none;stroke-opacity:1;paint-order:normal" />
    <rect
       style="opacity:1;fill:#80e5ff;fill-opacity:1;stroke:none;stroke-width:3.30729127;stroke-linecap:round;stroke-linejoin:round;stroke-miterlimit:4;stroke-dasharray:none;stroke-opacity:1;paint-order:normal"
       id="rect4741"
       width="7.9374995"
       height="2.1166666"
       x="42.422428"
       y="88.233154"
       ry="1.0583333"
       transform="rotate(-20.236841)" />
    <rect
       style="opacity:1;fill:#00ff00;fill-opacity:1;stroke:none;stroke-width:3.30729127;stroke-linecap:round;stroke-linejoin:round;stroke-miterlimit:4;stroke-dasharray:none;stroke-opacity:1;paint-order:normal"
       id="rect4743"
       width="7.9374995"
       height="2.1166666"
       x="79.95385"
       y="142.95113"
       ry="1.0583333"
       transform="rotate(-32.359194)" />
    <rect
       style="opacity:1;fill:#ffe680;fill-opacity:1;stroke:none;stroke-width:3.30729127;stroke-linecap:round;stroke-linejoin:round;stroke-miterlimit:4;stroke-dasharray:none;stroke-opacity:1;paint-order:normal"
       id="rect4745"
       width="7.9374995"
       height="2.1166666"
       x="79.95385"
       y="142.95113"
       ry="1.0583333"
       transform="rotate(-32.359194)" />
    <rect
       transform="rotate(-32.359194)"
       ry="1.0583333"
       y="173.14909"
       x="78.673546"
       height="2.1166666"
       width="7.9374995"
       id="rect4783"
       style="opacity:1;fill:#55ddff;fill-opacity:1;stroke:none;stroke-width:3.30729127;stroke-linecap:round;stroke-linejoin:round;stroke-miterlimit:4;stroke-dasharray:none;stroke-opacity:1;paint-order:normal" />
    <rect
       transform="rotate(-32.359194)"
       ry="1.0583333"
       y="153.97276"
       x="88.944725"
       height="2.1166666"
       width="7.9374995"
       id="rect4785"
       style="opacity:1;fill:#55ddff;fill-opacity:1;stroke:none;stroke-width:3.30729127;stroke-linecap:round;stroke-linejoin:round;stroke-miterlimit:4;stroke-dasharray:none;stroke-opacity:1;paint-order:normal" />
    <rect
       transform="rotate(-32.359194)"
       ry="1.0583333"
       y="130.00859"
       x="77.818108"
       height="2.1166666"
       width="7.9374995"
       id="rect4787"
       style="opacity:1;fill:#55ddff;fill-opacity:1;stroke:none;stroke-width:3.30729127;stroke-linecap:round;stroke-linejoin:round;stroke-miterlimit:4;stroke-dasharray:none;stroke-opacity:1;paint-order:normal" />
    <rect
       transform="rotate(-32.359194)"
       ry="1.0583333"
       y="119.15365"
       x="45.856243"
       height="2.1166666"
       width="7.9374995"
       id="rect4789"
       style="opacity:1;fill:#55ddff;fill-opacity:1;stroke:none;stroke-width:3.30729127;stroke-linecap:round;stroke-linejoin:round;stroke-miterlimit:4;stroke-dasharray:none;stroke-opacity:1;paint-order:normal" />
    <rect
       style="opacity:1;fill:#55ddff;fill-opacity:1;stroke:none;stroke-width:3.30729127;stroke-linecap:round;stroke-linejoin:round;stroke-miterlimit:4;stroke-dasharray:none;stroke-opacity:1;paint-order:normal"
       id="rect4747"
       width="7.9374995"
       height="2.1166666"
       x="45.856243"
       y="119.15365"
       ry="1.0583333"
       transform="rotate(-32.359194)" />
    <rect
       transform="rotate(64.96482)"
       ry="1.0583333"
       y="-75.139572"
       x="148.31441"
       height="2.1166666"
       width="7.9374995"
       id="rect4771"
       style="opacity:1;fill:#ff5555;fill-opacity:1;stroke:none;stroke-width:3.30729127;stroke-linecap:round;stroke-linejoin:round;stroke-miterlimit:4;stroke-dasharray:none;stroke-opacity:1;paint-order:normal" />
    <rect
       style="opacity:1;fill:#ff2a2a;fill-opacity:1;stroke:none;stroke-width:3.30729127;stroke-linecap:round;stroke-linejoin:round;stroke-miterlimit:4;stroke-dasharray:none;stroke-opacity:1;paint-order:normal"
       id="rect4777"
       width="7.9374995"
       height="2.1166666"
       x="59.679287"
       y="110.68487"
       ry="1.0583333"
       transform="rotate(-32.359194)" />
    <rect
       style="opacity:1;fill:#ff2a2a;fill-opacity:1;stroke:none;stroke-width:3.30729127;stroke-linecap:round;stroke-linejoin:round;stroke-miterlimit:4;stroke-dasharray:none;stroke-opacity:1;paint-order:normal"
       id="rect4779"
       width="7.9374995"
       height="2.1166666"
       x="35.795483"
       y="92.450836"
       ry="1.0583333"
       transform="rotate(-32.359194)" />
    <rect
       style="opacity:1;fill:#ff2a2a;fill-opacity:1;stroke:none;stroke-width:3.30729127;stroke-linecap:round;stroke-linejoin:round;stroke-miterlimit:4;stroke-dasharray:none;stroke-opacity:1;paint-order:normal"
       id="rect4781"
       width="7.9374995"
       height="2.1166666"
       x="34.934475"
       y="77.730377"
       ry="1.0583333"
       transform="rotate(-32.359194)" />
    <rect
       transform="rotate(-32.359194)"
       ry="1.0583333"
       y="77.730377"
       x="34.934475"
       height="2.1166666"
       width="7.9374995"
       id="rect4773"
       style="opacity:1;fill:#ff2a2a;fill-opacity:1;stroke:none;stroke-width:3.30729127;stroke-linecap:round;stroke-linejoin:round;stroke-miterlimit:4;stroke-dasharray:none;stroke-opacity:1;paint-order:normal" />
    <rect
       style="opacity:1;fill:#ff5555;fill-opacity:1;stroke:none;stroke-width:3.30729127;stroke-linecap:round;stroke-linejoin:round;stroke-miterlimit:4;stroke-dasharray:none;stroke-opacity:1;paint-order:normal"
       id="rect4749"
       width="7.9374995"
       height="2.1166666"
       x="59.685345"
       y="92.213074"
       ry="1.0583333"
       transform="rotate(-32.359194)" />
    <rect
       style="opacity:1;fill:#0000ff;fill-opacity:1;stroke:none;stroke-width:3.30729127;stroke-linecap:round;stroke-linejoin:round;stroke-miterlimit:4;stroke-dasharray:none;stroke-opacity:1;paint-order:normal"
       id="rect4751"
       width="7.9374995"
       height="2.1166666"
       x="81.267517"
       y="10.070979"
       ry="1.0583333"
       transform="rotate(30.780039)" />
    <rect
       style="opacity:1;fill:#e5ff80;fill-opacity:1;stroke:none;stroke-width:3.30729127;stroke-linecap:round;stroke-linejoin:round;stroke-miterlimit:4;stroke-dasharray:none;stroke-opacity:1;paint-order:normal"
       id="rect4753"
       width="7.9374995"
       height="2.1166666"
       x="114.88416"
       y="12.220691"
       ry="1.0583333"
       transform="rotate(30.780039)" />
    <rect
       transform="rotate(30.780039)"
       ry="1.0583333"
       y="-19.685247"
       x="98.651154"
       height="2.1166666"
       width="7.9374995"
       id="rect4791"
       style="opacity:1;fill:#5555ff;fill-opacity:1;stroke:none;stroke-width:3.30729127;stroke-linecap:round;stroke-linejoin:round;stroke-miterlimit:4;stroke-dasharray:none;stroke-opacity:1;paint-order:normal" />
    <rect
       transform="rotate(4.1192228)"
       ry="1.0583333"
       y="67.290062"
       x="57.275002"
       height="2.1166666"
       width="7.9374995"
       id="rect4793"
       style="opacity:1;fill:#5555ff;fill-opacity:1;stroke:none;stroke-width:3.30729127;stroke-linecap:round;stroke-linejoin:round;stroke-miterlimit:4;stroke-dasharray:none;stroke-opacity:1;paint-order:normal" />
    <rect
       transform="rotate(30.780039)"
       ry="1.0583333"
       y="45.680073"
       x="77.840912"
       height="2.1166666"
       width="7.9374995"
       id="rect4795"
       style="opacity:1;fill:#5555ff;fill-opacity:1;stroke:none;stroke-width:3.30729127;stroke-linecap:round;stroke-linejoin:round;stroke-miterlimit:4;stroke-dasharray:none;stroke-opacity:1;paint-order:normal" />
    <rect
       transform="rotate(30.780039)"
       ry="1.0583333"
       y="-10.135999"
       x="133.28772"
       height="2.1166666"
       width="7.9374995"
       id="rect4797"
       style="opacity:1;fill:#5555ff;fill-opacity:1;stroke:none;stroke-width:3.30729127;stroke-linecap:round;stroke-linejoin:round;stroke-miterlimit:4;stroke-dasharray:none;stroke-opacity:1;paint-order:normal" />
    <rect
       style="opacity:1;fill:#5555ff;fill-opacity:1;stroke:none;stroke-width:3.30729127;stroke-linecap:round;stroke-linejoin:round;stroke-miterlimit:4;stroke-dasharray:none;stroke-opacity:1;paint-order:normal"
       id="rect4755"
       width="7.9374995"
       height="2.1166666"
       x="133.28772"
       y="-10.135999"
       ry="1.0583333"
       transform="rotate(30.780039)" />
    <rect
       style="opacity:1;fill:#dde9af;fill-opacity:1;stroke:none;stroke-width:3.30729127;stroke-linecap:round;stroke-linejoin:round;stroke-miterlimit:4;stroke-dasharray:none;stroke-opacity:1;paint-order:normal"
       id="rect4757"
       width="7.9374995"
       height="2.1166666"
       x="102.79933"
       y="36.738621"
       ry="1.0583333"
       transform="rotate(9.2707813)" />
    <rect
       style="opacity:1;fill:#00ff00;fill-opacity:1;stroke:none;stroke-width:3.30729127;stroke-linecap:round;stroke-linejoin:round;stroke-miterlimit:4;stroke-dasharray:none;stroke-opacity:1;paint-order:normal"
       id="rect4759"
       width="7.9374995"
       height="2.1166666"
       x="173.12939"
       y="-5.8918128"
       ry="1.0583333"
       transform="rotate(30.780039)" />
    <rect
       transform="rotate(30.780039)"
       ry="1.0583333"
       y="-5.8918128"
       x="173.12939"
       height="2.1166666"
       width="7.9374995"
       id="rect4731"
       style="opacity:1;fill:#00ffcc;fill-opacity:1;stroke:none;stroke-width:3.30729127;stroke-linecap:round;stroke-linejoin:round;stroke-miterlimit:4;stroke-dasharray:none;stroke-opacity:1;paint-order:normal" />
    <rect
       transform="rotate(35.85851)"
       ry="1.0583333"
       y="18.523184"
       x="77.414909"
       height="2.1166666"
       width="7.9374995"
       id="rect4775"
       style="opacity:1;fill:#aa0000;fill-opacity:1;stroke:none;stroke-width:3.30729127;stroke-linecap:round;stroke-linejoin:round;stroke-miterlimit:4;stroke-dasharray:none;stroke-opacity:1;paint-order:normal" />
  </g>
</svg>
